G04 EAGLE Gerber RS-274X export*
G75*
%MOMM*%
%FSLAX34Y34*%
%LPD*%
%INTop Copper*%
%IPPOS*%
%AMOC8*
5,1,8,0,0,1.08239X$1,22.5*%
G01*
%ADD10C,1.651000*%
%ADD11C,1.320800*%
%ADD12C,1.524000*%
%ADD13C,1.117600*%
%ADD14P,1.429621X8X112.500000*%
%ADD15P,1.429621X8X202.500000*%
%ADD16P,1.429621X8X292.500000*%
%ADD17P,1.429621X8X22.500000*%
%ADD18R,1.930400X1.930400*%
%ADD19C,1.930400*%
%ADD20C,2.400000*%
%ADD21C,0.800000*%


D10*
X210795Y870128D03*
X236195Y870128D03*
X312395Y870128D03*
X286995Y870128D03*
X680695Y870128D03*
X706095Y870128D03*
X782295Y870128D03*
X756895Y870128D03*
D11*
X477495Y775132D02*
X477495Y761924D01*
X452095Y761924D02*
X452095Y775132D01*
X426695Y775132D02*
X426695Y761924D01*
X401295Y761924D02*
X401295Y775132D01*
X375895Y775132D02*
X375895Y761924D01*
X350495Y761924D02*
X350495Y775132D01*
X325095Y775132D02*
X325095Y761924D01*
X299695Y761924D02*
X299695Y775132D01*
X274295Y775132D02*
X274295Y761924D01*
X248895Y761924D02*
X248895Y775132D01*
X223495Y775132D02*
X223495Y761924D01*
X198095Y761924D02*
X198095Y775132D01*
X172695Y775132D02*
X172695Y761924D01*
X147295Y761924D02*
X147295Y775132D01*
X147295Y698932D02*
X147295Y685724D01*
X172695Y685724D02*
X172695Y698932D01*
X198095Y698932D02*
X198095Y685724D01*
X223495Y685724D02*
X223495Y698932D01*
X248895Y698932D02*
X248895Y685724D01*
X274295Y685724D02*
X274295Y698932D01*
X299695Y698932D02*
X299695Y685724D01*
X325095Y685724D02*
X325095Y698932D01*
X350495Y698932D02*
X350495Y685724D01*
X375895Y685724D02*
X375895Y698932D01*
X401295Y698932D02*
X401295Y685724D01*
X426695Y685724D02*
X426695Y698932D01*
X452095Y698932D02*
X452095Y685724D01*
X477495Y685724D02*
X477495Y698932D01*
X444500Y476504D02*
X444500Y463296D01*
X469900Y463296D02*
X469900Y476504D01*
X495300Y476504D02*
X495300Y463296D01*
X520700Y463296D02*
X520700Y476504D01*
X546100Y476504D02*
X546100Y463296D01*
X571500Y463296D02*
X571500Y476504D01*
X596900Y476504D02*
X596900Y463296D01*
X622300Y463296D02*
X622300Y476504D01*
X647700Y476504D02*
X647700Y463296D01*
X673100Y463296D02*
X673100Y476504D01*
X698500Y476504D02*
X698500Y463296D01*
X723900Y463296D02*
X723900Y476504D01*
X749300Y476504D02*
X749300Y463296D01*
X774700Y463296D02*
X774700Y476504D01*
X774700Y539496D02*
X774700Y552704D01*
X749300Y552704D02*
X749300Y539496D01*
X723900Y539496D02*
X723900Y552704D01*
X698500Y552704D02*
X698500Y539496D01*
X673100Y539496D02*
X673100Y552704D01*
X647700Y552704D02*
X647700Y539496D01*
X622300Y539496D02*
X622300Y552704D01*
X596900Y552704D02*
X596900Y539496D01*
X571500Y539496D02*
X571500Y552704D01*
X546100Y552704D02*
X546100Y539496D01*
X520700Y539496D02*
X520700Y552704D01*
X495300Y552704D02*
X495300Y539496D01*
X469900Y539496D02*
X469900Y552704D01*
X444500Y552704D02*
X444500Y539496D01*
X947395Y761924D02*
X947395Y775132D01*
X921995Y775132D02*
X921995Y761924D01*
X896595Y761924D02*
X896595Y775132D01*
X871195Y775132D02*
X871195Y761924D01*
X845795Y761924D02*
X845795Y775132D01*
X820395Y775132D02*
X820395Y761924D01*
X794995Y761924D02*
X794995Y775132D01*
X769595Y775132D02*
X769595Y761924D01*
X744195Y761924D02*
X744195Y775132D01*
X718795Y775132D02*
X718795Y761924D01*
X693395Y761924D02*
X693395Y775132D01*
X667995Y775132D02*
X667995Y761924D01*
X642595Y761924D02*
X642595Y775132D01*
X617195Y775132D02*
X617195Y761924D01*
X617195Y698932D02*
X617195Y685724D01*
X642595Y685724D02*
X642595Y698932D01*
X667995Y698932D02*
X667995Y685724D01*
X693395Y685724D02*
X693395Y698932D01*
X718795Y698932D02*
X718795Y685724D01*
X744195Y685724D02*
X744195Y698932D01*
X769595Y698932D02*
X769595Y685724D01*
X794995Y685724D02*
X794995Y698932D01*
X820395Y698932D02*
X820395Y685724D01*
X845795Y685724D02*
X845795Y698932D01*
X871195Y698932D02*
X871195Y685724D01*
X896595Y685724D02*
X896595Y698932D01*
X921995Y698932D02*
X921995Y685724D01*
X947395Y685724D02*
X947395Y698932D01*
D12*
X96596Y217703D02*
X81356Y217703D01*
X81356Y192303D02*
X96596Y192303D01*
X96596Y166903D02*
X81356Y166903D01*
X767156Y217703D02*
X782396Y217703D01*
X782396Y192303D02*
X767156Y192303D01*
X767156Y166903D02*
X782396Y166903D01*
X817956Y217703D02*
X833196Y217703D01*
X833196Y192303D02*
X817956Y192303D01*
X817956Y166903D02*
X833196Y166903D01*
X868756Y217703D02*
X883996Y217703D01*
X883996Y192303D02*
X868756Y192303D01*
X868756Y166903D02*
X883996Y166903D01*
X995756Y217703D02*
X1010996Y217703D01*
X1010996Y192303D02*
X995756Y192303D01*
X995756Y166903D02*
X1010996Y166903D01*
X1046556Y217703D02*
X1061796Y217703D01*
X1061796Y192303D02*
X1046556Y192303D01*
X1046556Y166903D02*
X1061796Y166903D01*
X1097356Y217703D02*
X1112596Y217703D01*
X1112596Y192303D02*
X1097356Y192303D01*
X1097356Y166903D02*
X1112596Y166903D01*
D13*
X236195Y813740D02*
X236195Y824916D01*
X286995Y824916D02*
X286995Y813740D01*
X706095Y813740D02*
X706095Y824916D01*
X756895Y824916D02*
X756895Y813740D01*
D12*
X147396Y217703D02*
X132156Y217703D01*
X132156Y192303D02*
X147396Y192303D01*
X147396Y166903D02*
X132156Y166903D01*
X182956Y217703D02*
X198196Y217703D01*
X198196Y192303D02*
X182956Y192303D01*
X182956Y166903D02*
X198196Y166903D01*
X309956Y217703D02*
X325196Y217703D01*
X325196Y192303D02*
X309956Y192303D01*
X309956Y166903D02*
X325196Y166903D01*
X360756Y217703D02*
X375996Y217703D01*
X375996Y192303D02*
X360756Y192303D01*
X360756Y166903D02*
X375996Y166903D01*
X411556Y217703D02*
X426796Y217703D01*
X426796Y192303D02*
X411556Y192303D01*
X411556Y166903D02*
X426796Y166903D01*
X538556Y217703D02*
X553796Y217703D01*
X553796Y192303D02*
X538556Y192303D01*
X538556Y166903D02*
X553796Y166903D01*
X589356Y217703D02*
X604596Y217703D01*
X604596Y192303D02*
X589356Y192303D01*
X589356Y166903D02*
X604596Y166903D01*
X640156Y217703D02*
X655396Y217703D01*
X655396Y192303D02*
X640156Y192303D01*
X640156Y166903D02*
X655396Y166903D01*
D14*
X596976Y255803D03*
X596976Y357403D03*
X825576Y255803D03*
X825576Y357403D03*
X876376Y255803D03*
X876376Y357403D03*
X1003376Y255803D03*
X1003376Y357403D03*
X1054176Y255803D03*
X1054176Y357403D03*
X1104976Y255803D03*
X1104976Y357403D03*
X88976Y255803D03*
X88976Y357403D03*
D15*
X698500Y578561D03*
X596900Y578561D03*
D16*
X1048995Y692328D03*
X1048995Y590728D03*
X1019405Y641528D03*
X1019405Y539928D03*
D17*
X477088Y815492D03*
X578688Y815492D03*
D14*
X139776Y255803D03*
X139776Y357403D03*
D17*
X452958Y662330D03*
X554558Y662330D03*
D14*
X531292Y691845D03*
X531292Y793445D03*
D15*
X947586Y796144D03*
X845986Y796144D03*
D14*
X190576Y255803D03*
X190576Y357403D03*
X317576Y255803D03*
X317576Y357403D03*
X368376Y255803D03*
X368376Y357403D03*
X419176Y255803D03*
X419176Y357403D03*
X546176Y255803D03*
X546176Y357403D03*
X647776Y255803D03*
X647776Y357403D03*
X774776Y255803D03*
X774776Y357403D03*
D18*
X1087095Y641528D03*
D19*
X1087095Y666928D03*
X1087095Y692328D03*
D20*
X38576Y90003D02*
X38576Y66003D01*
X88576Y66003D02*
X88576Y90003D01*
X138576Y90003D02*
X138576Y66003D01*
X188576Y66003D02*
X188576Y90003D01*
X724376Y90003D02*
X724376Y66003D01*
X774376Y66003D02*
X774376Y90003D01*
X824376Y90003D02*
X824376Y66003D01*
X874376Y66003D02*
X874376Y90003D01*
X495776Y90003D02*
X495776Y66003D01*
X545776Y66003D02*
X545776Y90003D01*
X595776Y90003D02*
X595776Y66003D01*
X645776Y66003D02*
X645776Y90003D01*
X267176Y90003D02*
X267176Y66003D01*
X317176Y66003D02*
X317176Y90003D01*
X367176Y90003D02*
X367176Y66003D01*
X417176Y66003D02*
X417176Y90003D01*
X952976Y90003D02*
X952976Y66003D01*
X1002976Y66003D02*
X1002976Y90003D01*
X1052976Y90003D02*
X1052976Y66003D01*
X1102976Y66003D02*
X1102976Y90003D01*
X94855Y582530D02*
X70855Y582530D01*
X70855Y532530D02*
X94855Y532530D01*
X1086847Y806744D02*
X1086847Y830744D01*
X1036847Y830744D02*
X1036847Y806744D01*
D21*
X444500Y546100D02*
X334400Y436000D01*
X117000Y436000D01*
X112000Y431000D01*
X112000Y256000D01*
X111803Y255803D01*
X88976Y255803D01*
X88976Y217703D01*
X400500Y469900D02*
X444500Y469900D01*
X400500Y469900D02*
X349600Y419000D01*
X179000Y419000D01*
X166000Y406000D01*
X166000Y256000D01*
X165803Y255803D02*
X139776Y255803D01*
X165803Y255803D02*
X166000Y256000D01*
X139776Y255803D02*
X139776Y217703D01*
X469900Y467900D02*
X469900Y469900D01*
X469900Y467900D02*
X409000Y407000D01*
X239000Y407000D01*
X216000Y384000D01*
X216000Y256000D01*
X215803Y255803D01*
X190576Y255803D01*
X190576Y217703D01*
X418400Y393000D02*
X495300Y469900D01*
X418400Y393000D02*
X345000Y393000D01*
X345000Y256000D01*
X317576Y255803D02*
X317576Y217703D01*
X317576Y255803D02*
X344803Y255803D01*
X345000Y256000D01*
X425800Y375000D02*
X520700Y469900D01*
X425800Y375000D02*
X392000Y375000D01*
X392000Y256000D01*
X368376Y255803D02*
X368376Y217703D01*
X368376Y255803D02*
X391803Y255803D01*
X392000Y256000D01*
X419176Y255803D02*
X419176Y217703D01*
X452200Y376000D02*
X546100Y469900D01*
X452200Y376000D02*
X451000Y376000D01*
X451000Y256000D01*
X450803Y255803D01*
X419176Y255803D01*
X546176Y255803D02*
X546176Y217703D01*
X571500Y281127D02*
X571500Y469900D01*
X571500Y281127D02*
X546176Y255803D01*
X610000Y367000D02*
X596900Y380100D01*
X596900Y469900D01*
X610000Y367000D02*
X610000Y268624D01*
X597179Y255803D01*
X596976Y255803D01*
X596976Y217703D01*
X647776Y217703D02*
X647776Y255803D01*
X622300Y281280D02*
X622300Y469900D01*
X622300Y281280D02*
X647776Y255803D01*
X646700Y468900D02*
X647700Y469900D01*
X646700Y468900D02*
X646700Y413300D01*
X774776Y285224D02*
X774776Y255803D01*
X774776Y285224D02*
X646700Y413300D01*
X774776Y255803D02*
X774776Y217703D01*
X784300Y308169D02*
X673000Y419469D01*
X784300Y297079D02*
X825576Y255803D01*
X784300Y297079D02*
X784300Y308169D01*
X673100Y419569D02*
X673100Y469900D01*
X673100Y419569D02*
X673000Y419469D01*
X825576Y255803D02*
X825576Y217703D01*
X698500Y412500D02*
X698500Y469900D01*
X698500Y412500D02*
X697000Y411000D01*
X852197Y255803D01*
X876376Y255803D01*
X876376Y217703D01*
X1003376Y217703D02*
X1003376Y255803D01*
X830600Y369531D02*
X824269Y369531D01*
X830600Y369531D02*
X944328Y255803D01*
X1003376Y255803D01*
X824269Y369531D02*
X723900Y469900D01*
X1054176Y255803D02*
X1054176Y217703D01*
X864248Y354952D02*
X749300Y469900D01*
X864248Y354952D02*
X864248Y352380D01*
X1020528Y255803D02*
X1054176Y255803D01*
X1020528Y255803D02*
X1008400Y267931D01*
X948697Y267931D02*
X864248Y352380D01*
X948697Y267931D02*
X1008400Y267931D01*
X1104976Y255803D02*
X1104976Y217703D01*
X867600Y377000D02*
X774700Y469900D01*
X867600Y377000D02*
X1087000Y377000D01*
X1092848Y371152D01*
X1092848Y352380D01*
X1104976Y340252D01*
X1104976Y255803D01*
X1118041Y180047D02*
X1125740Y172348D01*
X1117232Y180047D02*
X1104976Y192303D01*
X1117232Y180047D02*
X1118041Y180047D01*
X1125740Y172348D02*
X1125740Y100767D01*
X1102976Y78003D01*
X1074940Y172348D02*
X1067241Y180047D01*
X1066432Y180047D02*
X1054176Y192303D01*
X1066432Y180047D02*
X1067241Y180047D01*
X1074940Y172348D02*
X1074940Y99967D01*
X1052976Y78003D01*
X1024140Y172348D02*
X1016441Y180047D01*
X1015632Y180047D02*
X1003376Y192303D01*
X1015632Y180047D02*
X1016441Y180047D01*
X1024140Y172348D02*
X1024140Y99167D01*
X1002976Y78003D01*
X897140Y172348D02*
X889441Y180047D01*
X888632Y180047D02*
X876376Y192303D01*
X888632Y180047D02*
X889441Y180047D01*
X897140Y172348D02*
X897140Y100767D01*
X874376Y78003D01*
X846340Y172348D02*
X838641Y180047D01*
X837832Y180047D02*
X825576Y192303D01*
X837832Y180047D02*
X838641Y180047D01*
X846340Y172348D02*
X846340Y99967D01*
X824376Y78003D01*
X754012Y161459D02*
X754012Y172348D01*
X761712Y180047D01*
X762520Y180047D01*
X774776Y192303D01*
X774376Y141095D02*
X774376Y78003D01*
X774376Y141095D02*
X754012Y161459D01*
X668540Y172348D02*
X660841Y180047D01*
X660032Y180047D02*
X647776Y192303D01*
X660032Y180047D02*
X660841Y180047D01*
X668540Y172348D02*
X668540Y100767D01*
X645776Y78003D01*
X576212Y161459D02*
X576212Y172348D01*
X583912Y180047D01*
X595776Y141895D02*
X595776Y78003D01*
X584720Y180047D02*
X583912Y180047D01*
X576212Y161459D02*
X595776Y141895D01*
X584720Y180047D02*
X596976Y192303D01*
X525412Y172348D02*
X525412Y161459D01*
X545776Y141095D01*
X545776Y78003D01*
X525412Y172348D02*
X545368Y192303D01*
X546176Y192303D01*
X439940Y172348D02*
X432241Y180047D01*
X431432Y180047D02*
X419176Y192303D01*
X431432Y180047D02*
X432241Y180047D01*
X439940Y172348D02*
X439940Y100767D01*
X417176Y78003D01*
X389140Y172348D02*
X381441Y180047D01*
X380632Y180047D02*
X368376Y192303D01*
X380632Y180047D02*
X381441Y180047D01*
X389140Y172348D02*
X389140Y99967D01*
X367176Y78003D01*
X338340Y172348D02*
X330641Y180047D01*
X329832Y180047D02*
X317576Y192303D01*
X329832Y180047D02*
X330641Y180047D01*
X338340Y172348D02*
X338340Y99167D01*
X317176Y78003D01*
X211340Y172348D02*
X203641Y180047D01*
X202832Y180047D02*
X190576Y192303D01*
X202832Y180047D02*
X203641Y180047D01*
X211340Y172348D02*
X211340Y100767D01*
X188576Y78003D01*
X160540Y161459D02*
X160540Y172348D01*
X152841Y180047D01*
X160540Y161459D02*
X138576Y139495D01*
X152032Y180047D02*
X152841Y180047D01*
X152032Y180047D02*
X139776Y192303D01*
X138576Y139495D02*
X138576Y78003D01*
X109740Y172348D02*
X102041Y180047D01*
X101232Y180047D02*
X88976Y192303D01*
X101232Y180047D02*
X102041Y180047D01*
X109740Y172348D02*
X109740Y99167D01*
X88576Y78003D01*
X236195Y781228D02*
X236195Y819328D01*
X236195Y781228D02*
X248895Y768528D01*
X236195Y819328D02*
X236195Y870128D01*
X286995Y819328D02*
X286995Y781228D01*
X274295Y768528D01*
X286995Y819328D02*
X286995Y870128D01*
X475400Y566000D02*
X495300Y546100D01*
X475400Y566000D02*
X279000Y566000D01*
X198095Y646905D01*
X198095Y692328D01*
X541076Y527368D02*
X551124Y527368D01*
X362623Y703955D02*
X355518Y711060D01*
X569856Y546100D02*
X571500Y546100D01*
X320071Y711060D02*
X320011Y711000D01*
X551124Y527368D02*
X569856Y546100D01*
X455943Y588524D02*
X362623Y681844D01*
X362623Y703955D01*
X502032Y588524D02*
X532828Y557728D01*
X502032Y588524D02*
X455943Y588524D01*
X532828Y535616D02*
X541076Y527368D01*
X532828Y535616D02*
X532828Y557728D01*
X355518Y711060D02*
X320071Y711060D01*
X304778Y711000D02*
X304718Y711060D01*
X191427Y711060D01*
X304778Y711000D02*
X320011Y711000D01*
X191427Y711060D02*
X172695Y692328D01*
X487800Y579000D02*
X520700Y546100D01*
X487800Y579000D02*
X283000Y579000D01*
X248895Y613105D01*
X248895Y692328D01*
X477088Y768934D02*
X477088Y815492D01*
X477088Y768934D02*
X477495Y768528D01*
X439967Y704456D02*
X375895Y768528D01*
X439967Y704456D02*
X439967Y658170D01*
X447935Y650202D01*
X594398Y650202D02*
X698500Y546100D01*
X594398Y650202D02*
X447935Y650202D01*
X542352Y549848D02*
X546100Y546100D01*
X542352Y549848D02*
X542352Y561673D01*
X505977Y598048D01*
X471819Y598048D01*
X388023Y681844D01*
X388023Y703955D01*
X371394Y720584D01*
X175551Y720584D02*
X147295Y692328D01*
X175551Y720584D02*
X371394Y720584D01*
X1048995Y692328D02*
X1087095Y692328D01*
X718795Y768528D02*
X718795Y806628D01*
X706095Y819328D01*
X706095Y870128D01*
X744195Y806628D02*
X744195Y768528D01*
X744195Y806628D02*
X756895Y819328D01*
X756895Y870128D01*
X913682Y749796D02*
X1019405Y644073D01*
X1019405Y641528D01*
X1087095Y641528D01*
X889927Y749796D02*
X871195Y768528D01*
X889927Y749796D02*
X913682Y749796D01*
X530809Y692328D02*
X477495Y692328D01*
X530809Y692328D02*
X531292Y691845D01*
X909638Y696024D02*
X909867Y696252D01*
X593922Y691845D02*
X531292Y691845D01*
X593922Y691845D02*
X612171Y673596D01*
X901618Y673596D02*
X909638Y681616D01*
X909638Y696024D01*
X901618Y673596D02*
X612171Y673596D01*
X909867Y703955D02*
X916971Y711060D01*
X928663Y711060D01*
X947395Y692328D01*
X909867Y696252D02*
X909867Y703955D01*
X452958Y691464D02*
X452095Y692328D01*
X452958Y691464D02*
X452958Y676000D01*
X452958Y662330D01*
X452958Y676000D02*
X470067Y676000D01*
X472471Y673596D01*
X482518Y673596D01*
X905563Y664072D02*
X919162Y677671D01*
X919162Y689495D02*
X921995Y692328D01*
X905563Y664072D02*
X608226Y664072D01*
X919162Y677671D02*
X919162Y689495D01*
X483381Y674458D02*
X482518Y673596D01*
X483381Y674458D02*
X597839Y674458D01*
X608226Y664072D01*
X769595Y768528D02*
X794995Y743128D01*
X794995Y692328D01*
M02*
