G04 EAGLE Gerber RS-274X export*
G75*
%MOMM*%
%FSLAX34Y34*%
%LPD*%
%INSoldermask Bottom*%
%IPPOS*%
%AMOC8*
5,1,8,0,0,1.08239X$1,22.5*%
G01*
%ADD10C,1.854200*%
%ADD11C,1.524000*%
%ADD12C,1.727200*%
%ADD13C,1.320800*%
%ADD14P,1.649562X8X112.500000*%
%ADD15P,1.649562X8X202.500000*%
%ADD16P,1.649562X8X292.500000*%
%ADD17P,1.649562X8X22.500000*%
%ADD18R,2.133600X2.133600*%
%ADD19C,2.133600*%
%ADD20C,2.603200*%


D10*
X210795Y870128D03*
X236195Y870128D03*
X312395Y870128D03*
X286995Y870128D03*
X680695Y870128D03*
X706095Y870128D03*
X782295Y870128D03*
X756895Y870128D03*
D11*
X477495Y775132D02*
X477495Y761924D01*
X452095Y761924D02*
X452095Y775132D01*
X426695Y775132D02*
X426695Y761924D01*
X401295Y761924D02*
X401295Y775132D01*
X375895Y775132D02*
X375895Y761924D01*
X350495Y761924D02*
X350495Y775132D01*
X325095Y775132D02*
X325095Y761924D01*
X299695Y761924D02*
X299695Y775132D01*
X274295Y775132D02*
X274295Y761924D01*
X248895Y761924D02*
X248895Y775132D01*
X223495Y775132D02*
X223495Y761924D01*
X198095Y761924D02*
X198095Y775132D01*
X172695Y775132D02*
X172695Y761924D01*
X147295Y761924D02*
X147295Y775132D01*
X147295Y698932D02*
X147295Y685724D01*
X172695Y685724D02*
X172695Y698932D01*
X198095Y698932D02*
X198095Y685724D01*
X223495Y685724D02*
X223495Y698932D01*
X248895Y698932D02*
X248895Y685724D01*
X274295Y685724D02*
X274295Y698932D01*
X299695Y698932D02*
X299695Y685724D01*
X325095Y685724D02*
X325095Y698932D01*
X350495Y698932D02*
X350495Y685724D01*
X375895Y685724D02*
X375895Y698932D01*
X401295Y698932D02*
X401295Y685724D01*
X426695Y685724D02*
X426695Y698932D01*
X452095Y698932D02*
X452095Y685724D01*
X477495Y685724D02*
X477495Y698932D01*
X444500Y476504D02*
X444500Y463296D01*
X469900Y463296D02*
X469900Y476504D01*
X495300Y476504D02*
X495300Y463296D01*
X520700Y463296D02*
X520700Y476504D01*
X546100Y476504D02*
X546100Y463296D01*
X571500Y463296D02*
X571500Y476504D01*
X596900Y476504D02*
X596900Y463296D01*
X622300Y463296D02*
X622300Y476504D01*
X647700Y476504D02*
X647700Y463296D01*
X673100Y463296D02*
X673100Y476504D01*
X698500Y476504D02*
X698500Y463296D01*
X723900Y463296D02*
X723900Y476504D01*
X749300Y476504D02*
X749300Y463296D01*
X774700Y463296D02*
X774700Y476504D01*
X774700Y539496D02*
X774700Y552704D01*
X749300Y552704D02*
X749300Y539496D01*
X723900Y539496D02*
X723900Y552704D01*
X698500Y552704D02*
X698500Y539496D01*
X673100Y539496D02*
X673100Y552704D01*
X647700Y552704D02*
X647700Y539496D01*
X622300Y539496D02*
X622300Y552704D01*
X596900Y552704D02*
X596900Y539496D01*
X571500Y539496D02*
X571500Y552704D01*
X546100Y552704D02*
X546100Y539496D01*
X520700Y539496D02*
X520700Y552704D01*
X495300Y552704D02*
X495300Y539496D01*
X469900Y539496D02*
X469900Y552704D01*
X444500Y552704D02*
X444500Y539496D01*
X947395Y761924D02*
X947395Y775132D01*
X921995Y775132D02*
X921995Y761924D01*
X896595Y761924D02*
X896595Y775132D01*
X871195Y775132D02*
X871195Y761924D01*
X845795Y761924D02*
X845795Y775132D01*
X820395Y775132D02*
X820395Y761924D01*
X794995Y761924D02*
X794995Y775132D01*
X769595Y775132D02*
X769595Y761924D01*
X744195Y761924D02*
X744195Y775132D01*
X718795Y775132D02*
X718795Y761924D01*
X693395Y761924D02*
X693395Y775132D01*
X667995Y775132D02*
X667995Y761924D01*
X642595Y761924D02*
X642595Y775132D01*
X617195Y775132D02*
X617195Y761924D01*
X617195Y698932D02*
X617195Y685724D01*
X642595Y685724D02*
X642595Y698932D01*
X667995Y698932D02*
X667995Y685724D01*
X693395Y685724D02*
X693395Y698932D01*
X718795Y698932D02*
X718795Y685724D01*
X744195Y685724D02*
X744195Y698932D01*
X769595Y698932D02*
X769595Y685724D01*
X794995Y685724D02*
X794995Y698932D01*
X820395Y698932D02*
X820395Y685724D01*
X845795Y685724D02*
X845795Y698932D01*
X871195Y698932D02*
X871195Y685724D01*
X896595Y685724D02*
X896595Y698932D01*
X921995Y698932D02*
X921995Y685724D01*
X947395Y685724D02*
X947395Y698932D01*
D12*
X96596Y217703D02*
X81356Y217703D01*
X81356Y192303D02*
X96596Y192303D01*
X96596Y166903D02*
X81356Y166903D01*
X767156Y217703D02*
X782396Y217703D01*
X782396Y192303D02*
X767156Y192303D01*
X767156Y166903D02*
X782396Y166903D01*
X817956Y217703D02*
X833196Y217703D01*
X833196Y192303D02*
X817956Y192303D01*
X817956Y166903D02*
X833196Y166903D01*
X868756Y217703D02*
X883996Y217703D01*
X883996Y192303D02*
X868756Y192303D01*
X868756Y166903D02*
X883996Y166903D01*
X995756Y217703D02*
X1010996Y217703D01*
X1010996Y192303D02*
X995756Y192303D01*
X995756Y166903D02*
X1010996Y166903D01*
X1046556Y217703D02*
X1061796Y217703D01*
X1061796Y192303D02*
X1046556Y192303D01*
X1046556Y166903D02*
X1061796Y166903D01*
X1097356Y217703D02*
X1112596Y217703D01*
X1112596Y192303D02*
X1097356Y192303D01*
X1097356Y166903D02*
X1112596Y166903D01*
D13*
X236195Y813740D02*
X236195Y824916D01*
X286995Y824916D02*
X286995Y813740D01*
X706095Y813740D02*
X706095Y824916D01*
X756895Y824916D02*
X756895Y813740D01*
D12*
X147396Y217703D02*
X132156Y217703D01*
X132156Y192303D02*
X147396Y192303D01*
X147396Y166903D02*
X132156Y166903D01*
X182956Y217703D02*
X198196Y217703D01*
X198196Y192303D02*
X182956Y192303D01*
X182956Y166903D02*
X198196Y166903D01*
X309956Y217703D02*
X325196Y217703D01*
X325196Y192303D02*
X309956Y192303D01*
X309956Y166903D02*
X325196Y166903D01*
X360756Y217703D02*
X375996Y217703D01*
X375996Y192303D02*
X360756Y192303D01*
X360756Y166903D02*
X375996Y166903D01*
X411556Y217703D02*
X426796Y217703D01*
X426796Y192303D02*
X411556Y192303D01*
X411556Y166903D02*
X426796Y166903D01*
X538556Y217703D02*
X553796Y217703D01*
X553796Y192303D02*
X538556Y192303D01*
X538556Y166903D02*
X553796Y166903D01*
X589356Y217703D02*
X604596Y217703D01*
X604596Y192303D02*
X589356Y192303D01*
X589356Y166903D02*
X604596Y166903D01*
X640156Y217703D02*
X655396Y217703D01*
X655396Y192303D02*
X640156Y192303D01*
X640156Y166903D02*
X655396Y166903D01*
D14*
X596976Y255803D03*
X596976Y357403D03*
X825576Y255803D03*
X825576Y357403D03*
X876376Y255803D03*
X876376Y357403D03*
X1003376Y255803D03*
X1003376Y357403D03*
X1054176Y255803D03*
X1054176Y357403D03*
X1104976Y255803D03*
X1104976Y357403D03*
X88976Y255803D03*
X88976Y357403D03*
D15*
X698500Y578561D03*
X596900Y578561D03*
D16*
X1048995Y692328D03*
X1048995Y590728D03*
X1019405Y641528D03*
X1019405Y539928D03*
D17*
X477088Y815492D03*
X578688Y815492D03*
D14*
X139776Y255803D03*
X139776Y357403D03*
D17*
X452958Y662330D03*
X554558Y662330D03*
D14*
X531292Y691845D03*
X531292Y793445D03*
D15*
X947586Y796144D03*
X845986Y796144D03*
D14*
X190576Y255803D03*
X190576Y357403D03*
X317576Y255803D03*
X317576Y357403D03*
X368376Y255803D03*
X368376Y357403D03*
X419176Y255803D03*
X419176Y357403D03*
X546176Y255803D03*
X546176Y357403D03*
X647776Y255803D03*
X647776Y357403D03*
X774776Y255803D03*
X774776Y357403D03*
D18*
X1087095Y641528D03*
D19*
X1087095Y666928D03*
X1087095Y692328D03*
D20*
X38576Y90003D02*
X38576Y66003D01*
X88576Y66003D02*
X88576Y90003D01*
X138576Y90003D02*
X138576Y66003D01*
X188576Y66003D02*
X188576Y90003D01*
X724376Y90003D02*
X724376Y66003D01*
X774376Y66003D02*
X774376Y90003D01*
X824376Y90003D02*
X824376Y66003D01*
X874376Y66003D02*
X874376Y90003D01*
X495776Y90003D02*
X495776Y66003D01*
X545776Y66003D02*
X545776Y90003D01*
X595776Y90003D02*
X595776Y66003D01*
X645776Y66003D02*
X645776Y90003D01*
X267176Y90003D02*
X267176Y66003D01*
X317176Y66003D02*
X317176Y90003D01*
X367176Y90003D02*
X367176Y66003D01*
X417176Y66003D02*
X417176Y90003D01*
X952976Y90003D02*
X952976Y66003D01*
X1002976Y66003D02*
X1002976Y90003D01*
X1052976Y90003D02*
X1052976Y66003D01*
X1102976Y66003D02*
X1102976Y90003D01*
X94855Y582530D02*
X70855Y582530D01*
X70855Y532530D02*
X94855Y532530D01*
X1086847Y806744D02*
X1086847Y830744D01*
X1036847Y830744D02*
X1036847Y806744D01*
M02*
