M48
;GenerationSoftware,Autodesk,EAGLE,9.6.2*%
;CreationDate,2023-04-26T22:17:14Z*%
FMAT,2
ICI,OFF
METRIC,TZ,000.000
T5C0.610
T4C0.700
T3C0.813
T2C1.016
T1C1.600
%
G90
M71
T1
X100298Y7800
X95298Y7800
X41718Y7800
X36718Y7800
X31718Y7800
X26718Y7800
X64578Y7800
X59578Y7800
X103685Y81874
X54578Y7800
X49578Y7800
X87438Y7800
X82438Y7800
X77438Y7800
X72438Y7800
X18858Y7800
X13858Y7800
X8858Y7800
X3858Y7800
X108685Y81874
X8285Y53253
X8285Y58253
X110298Y7800
X105298Y7800
T2
X31758Y21770
X31758Y19230
X31758Y16690
X36838Y21770
X36838Y19230
X36838Y16690
X41918Y21770
X41918Y19230
X41918Y16690
X54618Y19230
X54618Y16690
X59698Y21770
X59698Y19230
X59698Y16690
X64778Y21770
X64778Y19230
X64778Y16690
X108709Y66693
X108709Y69233
X100338Y16690
X8898Y21770
X8898Y19230
X8898Y16690
X77478Y21770
X77478Y19230
X77478Y16690
X54618Y21770
X82558Y21770
X82558Y19230
X82558Y16690
X87638Y21770
X87638Y19230
X87638Y16690
X100338Y21770
X100338Y19230
X108709Y64153
X105418Y21770
X105418Y19230
X105418Y16690
X110498Y21770
X110498Y19230
X110498Y16690
X13978Y21770
X13978Y19230
X13978Y16690
X19058Y21770
X19058Y19230
X19058Y16690
T3
X24889Y69233
X64259Y76853
X66799Y76853
X69339Y76853
X71879Y76853
X74419Y76853
X76959Y76853
X79499Y76853
X47749Y76853
X45209Y76853
X42669Y76853
X40129Y76853
X37589Y76853
X35049Y76853
X32509Y76853
X29969Y76853
X27429Y76853
X24889Y76853
X22349Y76853
X19809Y76853
X17269Y76853
X14729Y76853
X14729Y69233
X17269Y69233
X19809Y69233
X22349Y69233
X27429Y69233
X29969Y69233
X32509Y69233
X35049Y69233
X37589Y69233
X40129Y69233
X42669Y69233
X45209Y69233
X47749Y69233
X44450Y46990
X46990Y46990
X49530Y46990
X52070Y46990
X54610Y46990
X57150Y46990
X59690Y46990
X62230Y46990
X64770Y46990
X67310Y46990
X69850Y46990
X72390Y46990
X74930Y46990
X77470Y46990
X77470Y54610
X74930Y54610
X82039Y76853
X69850Y54610
X67310Y54610
X64770Y54610
X62230Y54610
X59690Y54610
X57150Y54610
X54610Y54610
X52070Y54610
X49530Y54610
X46990Y54610
X44450Y54610
X94739Y76853
X92199Y76853
X89659Y76853
X84579Y76853
X87119Y76853
X101941Y64153
X59698Y25580
X59698Y35740
X82558Y25580
X82558Y35740
X87638Y25580
X87638Y35740
X100338Y25580
X100338Y35740
X105418Y25580
X105418Y35740
X110498Y25580
X110498Y35740
X8898Y25580
X8898Y35740
X69850Y57856
X59690Y57856
X104899Y69233
X104899Y59073
X94739Y69233
X101941Y53993
X47709Y81549
X57869Y81549
X13978Y25580
X13978Y35740
X45296Y66233
X55456Y66233
X53129Y69185
X53129Y79345
X94759Y79614
X84599Y79614
X19058Y25580
X19058Y35740
X31758Y25580
X31758Y35740
X36838Y25580
X36838Y35740
X41918Y25580
X41918Y35740
X54618Y25580
X54618Y35740
X64778Y25580
X64778Y35740
X77478Y25580
X77478Y35740
X72390Y54610
X66799Y69233
X92199Y69233
X89659Y69233
X87119Y69233
X84579Y69233
X82039Y69233
X79499Y69233
X76959Y69233
X74419Y69233
X71879Y69233
X69339Y69233
X64259Y69233
X61719Y69233
X61719Y76853
T4
X23619Y87013
X31239Y87013
X28699Y87013
X68069Y87013
X70609Y87013
X78229Y87013
X75689Y87013
X21079Y87013
T5
X75689Y81933
X23619Y81933
X28699Y81933
X70609Y81933
M30